<?xml version="1.0" encoding="UTF-8" standalone="no"?>
<svg
   xmlns:dc="http://purl.org/dc/elements/1.1/"
   xmlns:cc="http://creativecommons.org/ns#"
   xmlns:rdf="http://www.w3.org/1999/02/22-rdf-syntax-ns#"
   xmlns:svg="http://www.w3.org/2000/svg"
   xmlns="http://www.w3.org/2000/svg"
   xmlns:xlink="http://www.w3.org/1999/xlink"
   xmlns:sodipodi="http://sodipodi.sourceforge.net/DTD/sodipodi-0.dtd"
   xmlns:inkscape="http://www.inkscape.org/namespaces/inkscape"
   id="Layer_1"
   data-name="Layer 1"
   viewBox="0 0 155.43001 74.315489"
   version="1.1"
   sodipodi:docname="logo.svg"
   width="155.43001"
   height="74.315491"
   inkscape:version="1.0.2-2 (e86c870879, 2021-01-15)">
  <metadata
     id="metadata152">
    <rdf:RDF>
      <cc:Work
         rdf:about="">
        <dc:format>image/svg+xml</dc:format>
        <dc:type
           rdf:resource="http://purl.org/dc/dcmitype/StillImage" />
        <dc:title>logo</dc:title>
      </cc:Work>
    </rdf:RDF>
  </metadata>
  <sodipodi:namedview
     pagecolor="#ffffff"
     bordercolor="#666666"
     borderopacity="1"
     objecttolerance="10"
     gridtolerance="10"
     guidetolerance="10"
     inkscape:pageopacity="0"
     inkscape:pageshadow="2"
     inkscape:window-width="1920"
     inkscape:window-height="1027"
     id="namedview150"
     showgrid="false"
     fit-margin-top="0"
     fit-margin-left="0"
     fit-margin-right="0"
     fit-margin-bottom="0"
     inkscape:zoom="6.5169839"
     inkscape:cx="77.720001"
     inkscape:cy="38.813767"
     inkscape:window-x="-8"
     inkscape:window-y="-8"
     inkscape:window-maximized="1"
     inkscape:current-layer="Layer_1" />
  <defs
     id="defs93">
    <style
       id="style2">.cls-1{fill:url(#linear-gradient);}.cls-2{fill:url(#linear-gradient-2);}.cls-3{fill:url(#linear-gradient-15);}.cls-4{fill:url(#linear-gradient-16);}.cls-5{fill:url(#linear-gradient-17);}.cls-6{fill:url(#linear-gradient-18);}.cls-7{fill:none;stroke-miterlimit:10;stroke-width:0.75px;stroke:url(#linear-gradient-19);}.cls-8{font-size:9.08px;fill:#b3b3b3;font-family:TrebuchetMS, Trebuchet MS;}.cls-9{letter-spacing:-0.03em;}.cls-10{letter-spacing:0em;}.cls-11{letter-spacing:-0.04em;}.cls-12{letter-spacing:-0.02em;}</style>
    <linearGradient
       id="linear-gradient"
       x1="13.25"
       y1="37.619999"
       x2="13.25"
       y2="24.540001"
       gradientUnits="userSpaceOnUse">
      <stop
         offset="0"
         stop-color="#821180"
         id="stop4" />
      <stop
         offset="0.23"
         stop-color="#9c1499"
         id="stop6" />
      <stop
         offset="0.53"
         stop-color="#b817b4"
         id="stop8" />
      <stop
         offset="0.8"
         stop-color="#c919c5"
         id="stop10" />
      <stop
         offset="1"
         stop-color="#cf1acb"
         id="stop12" />
    </linearGradient>
    <linearGradient
       id="linear-gradient-2"
       x1="37.779999"
       y1="69.379997"
       x2="204.69"
       y2="69.379997"
       gradientUnits="userSpaceOnUse">
      <stop
         offset="0.08"
         stop-color="#5600ea"
         id="stop15" />
      <stop
         offset="0.11"
         stop-color="#5a01e9"
         id="stop17" />
      <stop
         offset="0.14"
         stop-color="#6704e6"
         id="stop19" />
      <stop
         offset="0.17"
         stop-color="#7b08e0"
         id="stop21" />
      <stop
         offset="0.2"
         stop-color="#980ed9"
         id="stop23" />
      <stop
         offset="0.23"
         stop-color="#bd16cf"
         id="stop25" />
      <stop
         offset="0.24"
         stop-color="#cf1acb"
         id="stop27" />
      <stop
         offset="0.33"
         stop-color="#c621cd"
         id="stop29" />
      <stop
         offset="0.48"
         stop-color="#ad33d4"
         id="stop31" />
      <stop
         offset="0.67"
         stop-color="#8450de"
         id="stop33" />
      <stop
         offset="0.88"
         stop-color="#4c78ec"
         id="stop35" />
      <stop
         offset="1"
         stop-color="#2b90f5"
         id="stop37" />
    </linearGradient>
    <linearGradient
       id="linear-gradient-15"
       x1="45.48"
       y1="37.619999"
       x2="45.48"
       y2="9.6400003"
       gradientUnits="userSpaceOnUse">
      <stop
         offset="0"
         stop-color="#2f0061"
         id="stop40" />
      <stop
         offset="0.14"
         stop-color="#310067"
         id="stop42" />
      <stop
         offset="0.32"
         stop-color="#360078"
         id="stop44" />
      <stop
         offset="0.54"
         stop-color="#3e0095"
         id="stop46" />
      <stop
         offset="0.77"
         stop-color="#4900bc"
         id="stop48" />
      <stop
         offset="1"
         stop-color="#5600ea"
         id="stop50" />
    </linearGradient>
    <linearGradient
       id="linear-gradient-16"
       x1="77.720001"
       y1="37.619999"
       x2="77.720001"
       gradientUnits="userSpaceOnUse">
      <stop
         offset="0"
         stop-color="#1c60a3"
         id="stop53" />
      <stop
         offset="0.19"
         stop-color="#1d64a9"
         id="stop55" />
      <stop
         offset="0.45"
         stop-color="#206eba"
         id="stop57" />
      <stop
         offset="0.74"
         stop-color="#257ed6"
         id="stop59" />
      <stop
         offset="1"
         stop-color="#2b90f5"
         id="stop61" />
    </linearGradient>
    <linearGradient
       id="linear-gradient-17"
       x1="142.19"
       y1="37.619999"
       x2="142.19"
       y2="17.57"
       xlink:href="#linear-gradient-15" />
    <linearGradient
       id="linear-gradient-18"
       x1="109.95"
       y1="37.619999"
       x2="109.95"
       y2="24.540001"
       xlink:href="#linear-gradient" />
    <linearGradient
       id="linear-gradient-19"
       x1="33.57"
       y1="84.059998"
       x2="124.53"
       y2="84.059998"
       gradientUnits="userSpaceOnUse">
      <stop
         offset="0"
         stop-color="#c2c2c2"
         stop-opacity="0.1"
         id="stop66" />
      <stop
         offset="0.05"
         stop-color="#adadad"
         stop-opacity="0.34"
         id="stop68" />
      <stop
         offset="0.11"
         stop-color="#999"
         stop-opacity="0.58"
         id="stop70" />
      <stop
         offset="0.18"
         stop-color="#898989"
         stop-opacity="0.77"
         id="stop72" />
      <stop
         offset="0.25"
         stop-color="#7e7e7e"
         stop-opacity="0.9"
         id="stop74" />
      <stop
         offset="0.35"
         stop-color="#777"
         stop-opacity="0.98"
         id="stop76" />
      <stop
         offset="0.5"
         stop-color="#757575"
         id="stop78" />
      <stop
         offset="0.65"
         stop-color="#777"
         stop-opacity="0.98"
         id="stop80" />
      <stop
         offset="0.75"
         stop-color="#7d7d7d"
         stop-opacity="0.9"
         id="stop82" />
      <stop
         offset="0.82"
         stop-color="#888"
         stop-opacity="0.77"
         id="stop84" />
      <stop
         offset="0.89"
         stop-color="#969696"
         stop-opacity="0.58"
         id="stop86" />
      <stop
         offset="0.95"
         stop-color="#a9a9a9"
         stop-opacity="0.34"
         id="stop88" />
      <stop
         offset="1"
         stop-color="#bdbdbd"
         stop-opacity="0.1"
         id="stop90" />
    </linearGradient>
    <linearGradient
       inkscape:collect="always"
       xlink:href="#linear-gradient"
       id="linearGradient977"
       gradientUnits="userSpaceOnUse"
       x1="13.25"
       y1="37.619999"
       x2="13.25"
       y2="24.540001" />
    <linearGradient
       inkscape:collect="always"
       xlink:href="#linear-gradient-2"
       id="linearGradient979"
       gradientUnits="userSpaceOnUse"
       x1="37.779999"
       y1="69.379997"
       x2="204.69"
       y2="69.379997"
       gradientTransform="translate(-37.78,-7.94)" />
    <linearGradient
       inkscape:collect="always"
       xlink:href="#linear-gradient-2"
       id="linearGradient981"
       gradientUnits="userSpaceOnUse"
       x1="37.779999"
       y1="69.379997"
       x2="204.69"
       y2="69.379997"
       gradientTransform="translate(-37.78,-7.94)" />
    <linearGradient
       inkscape:collect="always"
       xlink:href="#linear-gradient-2"
       id="linearGradient983"
       gradientUnits="userSpaceOnUse"
       x1="37.779999"
       y1="69.379997"
       x2="204.69"
       y2="69.379997"
       gradientTransform="translate(-37.78,-7.94)" />
    <linearGradient
       inkscape:collect="always"
       xlink:href="#linear-gradient-2"
       id="linearGradient985"
       gradientUnits="userSpaceOnUse"
       x1="37.779999"
       y1="69.379997"
       x2="204.69"
       y2="69.379997"
       gradientTransform="translate(-37.78,-7.94)" />
    <linearGradient
       inkscape:collect="always"
       xlink:href="#linear-gradient-2"
       id="linearGradient987"
       gradientUnits="userSpaceOnUse"
       x1="37.779999"
       y1="69.379997"
       x2="204.69"
       y2="69.379997"
       gradientTransform="translate(-37.78,-7.94)" />
    <linearGradient
       inkscape:collect="always"
       xlink:href="#linear-gradient-2"
       id="linearGradient989"
       gradientUnits="userSpaceOnUse"
       x1="37.779999"
       y1="69.379997"
       x2="204.69"
       y2="69.379997"
       gradientTransform="translate(-37.78,-7.94)" />
    <linearGradient
       inkscape:collect="always"
       xlink:href="#linear-gradient-2"
       id="linearGradient991"
       gradientUnits="userSpaceOnUse"
       x1="37.779999"
       y1="69.379997"
       x2="204.69"
       y2="69.379997"
       gradientTransform="translate(-37.78,-7.94)" />
    <linearGradient
       inkscape:collect="always"
       xlink:href="#linear-gradient-2"
       id="linearGradient993"
       gradientUnits="userSpaceOnUse"
       x1="37.779999"
       y1="69.379997"
       x2="204.69"
       y2="69.379997"
       gradientTransform="translate(-37.78,-7.94)" />
    <linearGradient
       inkscape:collect="always"
       xlink:href="#linear-gradient-2"
       id="linearGradient995"
       gradientUnits="userSpaceOnUse"
       x1="37.779999"
       y1="69.379997"
       x2="204.69"
       y2="69.379997"
       gradientTransform="translate(-37.78,-7.94)" />
    <linearGradient
       inkscape:collect="always"
       xlink:href="#linear-gradient-2"
       id="linearGradient997"
       gradientUnits="userSpaceOnUse"
       x1="37.779999"
       y1="69.379997"
       x2="204.69"
       y2="69.379997"
       gradientTransform="translate(-37.78,-7.94)" />
    <linearGradient
       inkscape:collect="always"
       xlink:href="#linear-gradient-2"
       id="linearGradient999"
       gradientUnits="userSpaceOnUse"
       x1="37.779999"
       y1="69.379997"
       x2="204.69"
       y2="69.379997"
       gradientTransform="translate(-37.78,-7.94)" />
    <linearGradient
       inkscape:collect="always"
       xlink:href="#linear-gradient-2"
       id="linearGradient1001"
       gradientUnits="userSpaceOnUse"
       x1="37.779999"
       y1="69.379997"
       x2="204.69"
       y2="69.379997"
       gradientTransform="translate(-37.78,-7.94)" />
    <linearGradient
       inkscape:collect="always"
       xlink:href="#linear-gradient-2"
       id="linearGradient1003"
       gradientUnits="userSpaceOnUse"
       x1="37.779999"
       y1="69.379997"
       x2="204.69"
       y2="69.379997"
       gradientTransform="translate(-37.78,-7.94)" />
    <linearGradient
       inkscape:collect="always"
       xlink:href="#linear-gradient-15"
       id="linearGradient1005"
       gradientUnits="userSpaceOnUse"
       x1="45.48"
       y1="37.619999"
       x2="45.48"
       y2="9.6400003" />
  </defs>
  <title
     id="title95">logo</title>
  <rect
     class="cls-1"
     y="24.540001"
     width="26.49"
     height="13.08"
     id="rect97"
     x="0"
     style="fill:url(#linearGradient977)" />
  <path
     class="cls-2"
     d="M 8.22,69.31 H 6.98 L 0.16,50.76 h 2.78 l 4.71,13.48 4.57,-13.48 h 2.69 z"
     id="path99"
     style="fill:url(#linearGradient979)" />
  <path
     class="cls-2"
     d="M 17.4,69.06 V 57.68 h -1.83 v -2 h 4.21 v 13.38 z m 1.3,-18.44 a 1.47,1.47 0 0 1 0,2.94 1.41,1.41 0 0 1 -1,-0.44 1.39,1.39 0 0 1 -0.48,-1.06 1.43,1.43 0 0 1 1.46,-1.46 z"
     id="path101"
     style="fill:url(#linearGradient981)" />
  <path
     class="cls-2"
     d="m 22.67,68.26 0.84,-2.2 a 6.4,6.4 0 0 0 3.2,1.3 c 1.46,0 2.2,-0.62 2.2,-1.85 0,-0.88 -0.71,-1.64 -2.13,-2.27 a 17.14,17.14 0 0 1 -2.2,-1.18 5,5 0 0 1 -1,-0.88 3.4,3.4 0 0 1 -0.83,-2.24 3.08,3.08 0 0 1 1.2,-2.58 5,5 0 0 1 3.14,-0.92 10.17,10.17 0 0 1 3.68,0.92 l -0.67,2.2 a 4.56,4.56 0 0 0 -2.84,-1.12 2.43,2.43 0 0 0 -1.43,0.4 1.17,1.17 0 0 0 -0.58,1 2.11,2.11 0 0 0 1.46,2 l 1.7,0.77 a 6,6 0 0 1 2.27,1.63 3.55,3.55 0 0 1 0.71,2.28 3.43,3.43 0 0 1 -1.26,2.82 5.39,5.39 0 0 1 -3.49,1 8,8 0 0 1 -3.97,-1.08 z"
     id="path103"
     style="fill:url(#linearGradient983)" />
  <path
     class="cls-2"
     d="m 36.15,55.68 v 8.53 c 0,2.07 0.9,3.1 2.69,3.1 a 3.65,3.65 0 0 0 2.14,-0.68 3.26,3.26 0 0 0 1.29,-1.57 v -9.38 h 2.37 v 13.38 h -2.37 v -1.85 a 3.76,3.76 0 0 1 -1.6,1.44 4.91,4.91 0 0 1 -2.36,0.66 4.34,4.34 0 0 1 -3.36,-1.25 5.11,5.11 0 0 1 -1.17,-3.59 v -8.79 z"
     id="path105"
     style="fill:url(#linearGradient985)" />
  <path
     class="cls-2"
     d="m 55.44,67.52 a 5.25,5.25 0 0 1 -4.36,1.79 3.73,3.73 0 0 1 -2.73,-1.15 3.84,3.84 0 0 1 -1.13,-2.84 4.27,4.27 0 0 1 1.78,-3.44 7.09,7.09 0 0 1 4.54,-1.4 5.2,5.2 0 0 1 1.7,0.32 c 0,-2.16 -1,-3.25 -2.9,-3.25 a 4.63,4.63 0 0 0 -3.42,1.2 l -1,-2 a 5.82,5.82 0 0 1 1.87,-0.95 7.38,7.38 0 0 1 2.28,-0.39 5.8,5.8 0 0 1 4.23,1.32 5.79,5.79 0 0 1 1.32,4.21 v 4.8 a 2.46,2.46 0 0 0 1,2.35 v 1.18 a 4.42,4.42 0 0 1 -2.17,-0.41 2.32,2.32 0 0 1 -1.01,-1.34 z m -0.23,-5 a 8.27,8.27 0 0 0 -1.57,-0.25 4.55,4.55 0 0 0 -2.94,0.92 2.78,2.78 0 0 0 -1.13,2.19 c 0,1.39 0.82,2.08 2.46,2.08 a 4,4 0 0 0 3.19,-1.74 z"
     id="path107"
     style="fill:url(#linearGradient987)" />
  <path
     class="cls-2"
     d="M 61.51,65.27 V 50.2 h 2.37 v 14.67 a 2.28,2.28 0 0 0 0.62,1.69 2.16,2.16 0 0 0 1.62,0.62 v 2.13 c -3.08,0 -4.61,-1.35 -4.61,-4.04 z"
     id="path109"
     style="fill:url(#linearGradient989)" />
  <path
     class="cls-2"
     d="m 75.94,68.22 0.91,-2.3 a 6.14,6.14 0 0 0 1.74,0.86 6,6 0 0 0 1.87,0.34 3.37,3.37 0 0 0 2.34,-0.8 2.58,2.58 0 0 0 0.89,-2 3.18,3.18 0 0 0 -0.49,-1.72 6,6 0 0 0 -2.48,-1.73 l -1.5,-0.72 a 5.83,5.83 0 0 1 -2.59,-2.09 5.33,5.33 0 0 1 -0.74,-2.89 4.47,4.47 0 0 1 1.44,-3.4 5.26,5.26 0 0 1 3.73,-1.34 c 2,0 3.43,0.32 4.22,1 l -0.74,2.18 a 5.31,5.31 0 0 0 -1.52,-0.7 6,6 0 0 0 -1.9,-0.34 2.75,2.75 0 0 0 -2,0.72 2.56,2.56 0 0 0 -0.73,1.86 3,3 0 0 0 0.27,1.28 2.56,2.56 0 0 0 0.73,1 11,11 0 0 0 1.91,1.09 l 1.5,0.71 a 5.92,5.92 0 0 1 2.63,2.12 5.83,5.83 0 0 1 0.76,3.13 4.43,4.43 0 0 1 -1.66,3.49 6.5,6.5 0 0 1 -4.42,1.44 7.26,7.26 0 0 1 -4.17,-1.19 z"
     id="path111"
     style="fill:url(#linearGradient991)" />
  <path
     class="cls-2"
     d="m 88,62.34 a 7.34,7.34 0 0 1 1.67,-5 5.54,5.54 0 0 1 4.39,-1.9 5.6,5.6 0 0 1 4.46,1.83 7.49,7.49 0 0 1 1.59,5.08 7.54,7.54 0 0 1 -1.63,5.1 6.18,6.18 0 0 1 -8.88,0 7.58,7.58 0 0 1 -1.6,-5.11 z m 2.5,0 q 0,5 3.56,5 a 3,3 0 0 0 2.6,-1.35 6.33,6.33 0 0 0 0.95,-3.68 c 0,-3.32 -1.18,-5 -3.55,-5 a 3,3 0 0 0 -2.59,1.32 6,6 0 0 0 -0.97,3.71 z"
     id="path113"
     style="fill:url(#linearGradient993)" />
  <path
     class="cls-2"
     d="m 109.87,57.96 a 2.63,2.63 0 0 0 -3.76,0.63 4.3,4.3 0 0 0 -0.95,2.8 v 7.67 h -2.37 V 55.68 h 2.37 v 2.13 a 4.17,4.17 0 0 1 3.86,-2.38 10.66,10.66 0 0 1 1.84,0.22 z"
     id="path115"
     style="fill:url(#linearGradient995)" />
  <path
     class="cls-2"
     d="m 113.4,57.55 h -1.55 v -1.87 h 1.55 v -2.8 l 2.37,-0.91 v 3.71 h 3.67 v 1.87 h -3.67 v 6.65 a 3.92,3.92 0 0 0 0.57,2.4 2.22,2.22 0 0 0 1.83,0.71 4.47,4.47 0 0 0 1.88,-0.46 l 0.35,2.08 a 13.07,13.07 0 0 1 -3.23,0.38 3.53,3.53 0 0 1 -2.68,-1.18 4.21,4.21 0 0 1 -1.09,-3 z"
     id="path117"
     style="fill:url(#linearGradient997)" />
  <path
     class="cls-2"
     d="M 123.84,69.06 V 57.68 H 122 v -2 h 4.22 v 13.38 z m 1.3,-18.44 a 1.47,1.47 0 0 1 1.47,1.44 1.39,1.39 0 0 1 -0.43,1 1.41,1.41 0 0 1 -1,0.44 1.49,1.49 0 0 1 -1.5,-1.44 1.43,1.43 0 0 1 0.42,-1 1.42,1.42 0 0 1 1.04,-0.44 z"
     id="path119"
     style="fill:url(#linearGradient999)" />
  <path
     class="cls-2"
     d="m 138.22,69.06 v -7.79 a 5.14,5.14 0 0 0 -0.65,-3 2.51,2.51 0 0 0 -2.15,-0.85 3.58,3.58 0 0 0 -1.7,0.48 3.82,3.82 0 0 0 -1.36,1.2 v 9.96 h -2.38 V 55.68 h 1.63 l 0.75,1.72 a 4.12,4.12 0 0 1 3.83,-2 q 4.4,0 4.4,5.35 v 8.31 z"
     id="path121"
     style="fill:url(#linearGradient1001)" />
  <path
     class="cls-2"
     d="m 143.47,72.72 1.29,-1.9 a 7,7 0 0 0 3.82,1.38 5,5 0 0 0 2.55,-0.55 1.61,1.61 0 0 0 0.93,-1.38 c 0,-1.08 -0.79,-1.63 -2.35,-1.63 a 8.83,8.83 0 0 0 -1.45,0.21 9.53,9.53 0 0 1 -1.64,0.19 c -1.9,0 -2.85,-0.71 -2.85,-2.14 a 1.54,1.54 0 0 1 0.67,-1.2 4.19,4.19 0 0 1 1.66,-0.78 5,5 0 0 1 -1.36,-8.09 5,5 0 0 1 3.61,-1.4 5.15,5.15 0 0 1 3.08,0.81 l 1.19,-1.42 1.6,1.46 -1.43,1.07 a 5,5 0 0 1 0.92,3.1 4.86,4.86 0 0 1 -1.27,3.4 5,5 0 0 1 -3.31,1.57 l -2,0.2 a 4.35,4.35 0 0 0 -0.93,0.27 c -0.4,0.15 -0.59,0.36 -0.59,0.61 0,0.25 0.41,0.51 1.22,0.51 a 11.29,11.29 0 0 0 1.68,-0.2 12.25,12.25 0 0 1 1.68,-0.19 4.65,4.65 0 0 1 3.08,0.94 3.25,3.25 0 0 1 1.11,2.62 3.48,3.48 0 0 1 -1.66,3 7.29,7.29 0 0 1 -4.19,1.13 8.78,8.78 0 0 1 -2.73,-0.46 8,8 0 0 1 -2.33,-1.13 z m 5,-15.38 a 2.58,2.58 0 0 0 -2,0.87 3.11,3.11 0 0 0 -0.78,2.13 3.52,3.52 0 0 0 0.76,2.32 2.49,2.49 0 0 0 2,0.91 2.36,2.36 0 0 0 2,-0.89 3.61,3.61 0 0 0 0.71,-2.34 3.14,3.14 0 0 0 -0.76,-2.13 2.48,2.48 0 0 0 -1.89,-0.87 z"
     id="path123"
     style="fill:url(#linearGradient1003)" />
  <rect
     class="cls-3"
     x="32.240002"
     y="9.6400003"
     width="26.49"
     height="27.98"
     id="rect125"
     style="fill:url(#linearGradient1005)" />
  <rect
     class="cls-4"
     x="64.470001"
     width="26.49"
     height="37.619999"
     id="rect127"
     y="0"
     style="fill:url(#linear-gradient-16)" />
  <rect
     class="cls-5"
     x="128.94"
     y="17.57"
     width="26.49"
     height="20.049999"
     id="rect129"
     style="fill:url(#linear-gradient-17)" />
  <rect
     class="cls-6"
     x="96.709999"
     y="24.540001"
     width="26.49"
     height="13.08"
     id="rect131"
     style="fill:url(#linear-gradient-18)" />
</svg>
