<svg id="Layer_1" data-name="Layer 1" xmlns="http://www.w3.org/2000/svg" xmlns:xlink="http://www.w3.org/1999/xlink" viewBox="0 0 155.44 126.73"><defs><style>.cls-1{fill:url(#linear-gradient);}.cls-2{fill:url(#linear-gradient-2);}.cls-3{fill:url(#linear-gradient-15);}.cls-4{fill:url(#linear-gradient-16);}.cls-5{fill:url(#linear-gradient-17);}.cls-6{fill:url(#linear-gradient-18);}.cls-7{fill:none;stroke-miterlimit:10;stroke-width:0.75px;stroke:url(#linear-gradient-19);}.cls-8{font-size:9.08px;fill:#b3b3b3;font-family:TrebuchetMS, Trebuchet MS;}.cls-9{letter-spacing:-0.03em;}.cls-10{letter-spacing:0em;}.cls-11{letter-spacing:-0.04em;}.cls-12{letter-spacing:-0.02em;}</style><linearGradient id="linear-gradient" x1="13.25" y1="37.62" x2="13.25" y2="24.54" gradientUnits="userSpaceOnUse"><stop offset="0" stop-color="#821180"/><stop offset="0.23" stop-color="#9c1499"/><stop offset="0.53" stop-color="#b817b4"/><stop offset="0.8" stop-color="#c919c5"/><stop offset="1" stop-color="#cf1acb"/></linearGradient><linearGradient id="linear-gradient-2" x1="37.78" y1="69.38" x2="204.69" y2="69.38" gradientUnits="userSpaceOnUse"><stop offset="0.08" stop-color="#5600ea"/><stop offset="0.11" stop-color="#5a01e9"/><stop offset="0.14" stop-color="#6704e6"/><stop offset="0.17" stop-color="#7b08e0"/><stop offset="0.2" stop-color="#980ed9"/><stop offset="0.23" stop-color="#bd16cf"/><stop offset="0.24" stop-color="#cf1acb"/><stop offset="0.33" stop-color="#c621cd"/><stop offset="0.48" stop-color="#ad33d4"/><stop offset="0.67" stop-color="#8450de"/><stop offset="0.88" stop-color="#4c78ec"/><stop offset="1" stop-color="#2b90f5"/></linearGradient><linearGradient id="linear-gradient-15" x1="45.48" y1="37.62" x2="45.48" y2="9.64" gradientUnits="userSpaceOnUse"><stop offset="0" stop-color="#2f0061"/><stop offset="0.14" stop-color="#310067"/><stop offset="0.32" stop-color="#360078"/><stop offset="0.54" stop-color="#3e0095"/><stop offset="0.77" stop-color="#4900bc"/><stop offset="1" stop-color="#5600ea"/></linearGradient><linearGradient id="linear-gradient-16" x1="77.72" y1="37.62" x2="77.72" gradientUnits="userSpaceOnUse"><stop offset="0" stop-color="#1c60a3"/><stop offset="0.19" stop-color="#1d64a9"/><stop offset="0.45" stop-color="#206eba"/><stop offset="0.74" stop-color="#257ed6"/><stop offset="1" stop-color="#2b90f5"/></linearGradient><linearGradient id="linear-gradient-17" x1="142.19" y1="37.62" x2="142.19" y2="17.57" xlink:href="#linear-gradient-15"/><linearGradient id="linear-gradient-18" x1="109.95" y1="37.62" x2="109.95" y2="24.54" xlink:href="#linear-gradient"/><linearGradient id="linear-gradient-19" x1="33.57" y1="84.06" x2="124.53" y2="84.06" gradientUnits="userSpaceOnUse"><stop offset="0" stop-color="#c2c2c2" stop-opacity="0.1"/><stop offset="0.05" stop-color="#adadad" stop-opacity="0.34"/><stop offset="0.11" stop-color="#999" stop-opacity="0.58"/><stop offset="0.18" stop-color="#898989" stop-opacity="0.77"/><stop offset="0.25" stop-color="#7e7e7e" stop-opacity="0.9"/><stop offset="0.35" stop-color="#777" stop-opacity="0.98"/><stop offset="0.5" stop-color="#757575"/><stop offset="0.65" stop-color="#777" stop-opacity="0.98"/><stop offset="0.75" stop-color="#7d7d7d" stop-opacity="0.9"/><stop offset="0.82" stop-color="#888" stop-opacity="0.77"/><stop offset="0.89" stop-color="#969696" stop-opacity="0.58"/><stop offset="0.95" stop-color="#a9a9a9" stop-opacity="0.34"/><stop offset="1" stop-color="#bdbdbd" stop-opacity="0.1"/></linearGradient></defs><title>logo</title><rect class="cls-1" y="24.54" width="26.49" height="13.08"/><path class="cls-2" d="M46,77.25H44.76L37.94,58.7h2.78l4.71,13.48L50,58.7h2.69Z" transform="translate(-37.78 -7.94)"/><path class="cls-2" d="M55.18,77V65.62H53.35v-2h4.21V77Zm1.3-18.44a1.47,1.47,0,0,1,0,2.94,1.41,1.41,0,0,1-1-.44A1.39,1.39,0,0,1,55,60a1.43,1.43,0,0,1,1.46-1.46Z" transform="translate(-37.78 -7.94)"/><path class="cls-2" d="M60.45,76.2,61.29,74a6.4,6.4,0,0,0,3.2,1.3c1.46,0,2.2-.62,2.2-1.85,0-.88-.71-1.64-2.13-2.27A17.14,17.14,0,0,1,62.36,70a5,5,0,0,1-1-.88,3.4,3.4,0,0,1-.83-2.24,3.08,3.08,0,0,1,1.2-2.58,5,5,0,0,1,3.14-.92,10.17,10.17,0,0,1,3.68.92l-.67,2.2a4.56,4.56,0,0,0-2.84-1.12,2.43,2.43,0,0,0-1.43.4,1.17,1.17,0,0,0-.58,1,2.11,2.11,0,0,0,1.46,2l1.7.77a6,6,0,0,1,2.27,1.63,3.55,3.55,0,0,1,.71,2.28,3.43,3.43,0,0,1-1.26,2.82,5.39,5.39,0,0,1-3.49,1A8,8,0,0,1,60.45,76.2Z" transform="translate(-37.78 -7.94)"/><path class="cls-2" d="M73.93,63.62v8.53c0,2.07.9,3.1,2.69,3.1a3.65,3.65,0,0,0,2.14-.68A3.26,3.26,0,0,0,80.05,73V63.62h2.37V77H80.05V75.15a3.76,3.76,0,0,1-1.6,1.44,4.91,4.91,0,0,1-2.36.66A4.34,4.34,0,0,1,72.73,76a5.11,5.11,0,0,1-1.17-3.59V63.62Z" transform="translate(-37.78 -7.94)"/><path class="cls-2" d="M93.22,75.46a5.25,5.25,0,0,1-4.36,1.79,3.73,3.73,0,0,1-2.73-1.15A3.84,3.84,0,0,1,85,73.26a4.27,4.27,0,0,1,1.78-3.44,7.09,7.09,0,0,1,4.54-1.4,5.2,5.2,0,0,1,1.7.32c0-2.16-1-3.25-2.9-3.25a4.63,4.63,0,0,0-3.42,1.2l-1-2a5.82,5.82,0,0,1,1.87-.95,7.38,7.38,0,0,1,2.28-.39,5.8,5.8,0,0,1,4.23,1.32,5.79,5.79,0,0,1,1.32,4.21v4.8a2.46,2.46,0,0,0,1,2.35v1.18a4.42,4.42,0,0,1-2.17-.41A2.32,2.32,0,0,1,93.22,75.46Zm-.23-5a8.27,8.27,0,0,0-1.57-.25,4.55,4.55,0,0,0-2.94.92,2.78,2.78,0,0,0-1.13,2.19c0,1.39.82,2.08,2.46,2.08A4,4,0,0,0,93,73.66Z" transform="translate(-37.78 -7.94)"/><path class="cls-2" d="M99.29,73.21V58.14h2.37V72.81a2.28,2.28,0,0,0,.62,1.69,2.16,2.16,0,0,0,1.62.62v2.13C100.82,77.25,99.29,75.9,99.29,73.21Z" transform="translate(-37.78 -7.94)"/><path class="cls-2" d="M113.72,76.16l.91-2.3a6.14,6.14,0,0,0,1.74.86,6,6,0,0,0,1.87.34,3.37,3.37,0,0,0,2.34-.8,2.58,2.58,0,0,0,.89-2,3.18,3.18,0,0,0-.49-1.72,6,6,0,0,0-2.48-1.73L117,68.09A5.83,5.83,0,0,1,114.41,66a5.33,5.33,0,0,1-.74-2.89,4.47,4.47,0,0,1,1.44-3.4,5.26,5.26,0,0,1,3.73-1.34c2,0,3.43.32,4.22,1l-.74,2.18a5.31,5.31,0,0,0-1.52-.7,6,6,0,0,0-1.9-.34,2.75,2.75,0,0,0-2,.72,2.56,2.56,0,0,0-.73,1.86,3,3,0,0,0,.27,1.28,2.56,2.56,0,0,0,.73,1,11,11,0,0,0,1.91,1.09l1.5.71a5.92,5.92,0,0,1,2.63,2.12,5.83,5.83,0,0,1,.76,3.13,4.43,4.43,0,0,1-1.66,3.49,6.5,6.5,0,0,1-4.42,1.44A7.26,7.26,0,0,1,113.72,76.16Z" transform="translate(-37.78 -7.94)"/><path class="cls-2" d="M125.78,70.28a7.34,7.34,0,0,1,1.67-5,5.54,5.54,0,0,1,4.39-1.9,5.6,5.6,0,0,1,4.46,1.83,7.49,7.49,0,0,1,1.59,5.08,7.54,7.54,0,0,1-1.63,5.1,6.18,6.18,0,0,1-8.88,0A7.58,7.58,0,0,1,125.78,70.28Zm2.5,0q0,5,3.56,5a3,3,0,0,0,2.6-1.35,6.33,6.33,0,0,0,.95-3.68c0-3.32-1.18-5-3.55-5a3,3,0,0,0-2.59,1.32A6,6,0,0,0,128.28,70.28Z" transform="translate(-37.78 -7.94)"/><path class="cls-2" d="M147.65,65.9a2.63,2.63,0,0,0-3.76.63,4.3,4.3,0,0,0-.95,2.8V77h-2.37V63.62h2.37v2.13a4.17,4.17,0,0,1,3.86-2.38,10.66,10.66,0,0,1,1.84.22Z" transform="translate(-37.78 -7.94)"/><path class="cls-2" d="M151.18,65.49h-1.55V63.62h1.55v-2.8l2.37-.91v3.71h3.67v1.87h-3.67v6.65a3.92,3.92,0,0,0,.57,2.4,2.22,2.22,0,0,0,1.83.71,4.47,4.47,0,0,0,1.88-.46l.35,2.08a13.07,13.07,0,0,1-3.23.38,3.53,3.53,0,0,1-2.68-1.18,4.21,4.21,0,0,1-1.09-3Z" transform="translate(-37.78 -7.94)"/><path class="cls-2" d="M161.62,77V65.62h-1.84v-2H164V77Zm1.3-18.44A1.47,1.47,0,0,1,164.39,60a1.39,1.39,0,0,1-.43,1,1.41,1.41,0,0,1-1,.44A1.49,1.49,0,0,1,161.46,60a1.43,1.43,0,0,1,.42-1A1.42,1.42,0,0,1,162.92,58.56Z" transform="translate(-37.78 -7.94)"/><path class="cls-2" d="M176,77V69.21a5.14,5.14,0,0,0-.65-3,2.51,2.51,0,0,0-2.15-.85,3.58,3.58,0,0,0-1.7.48,3.82,3.82,0,0,0-1.36,1.2V77h-2.38V63.62h1.63l.75,1.72a4.12,4.12,0,0,1,3.83-2q4.4,0,4.4,5.35V77Z" transform="translate(-37.78 -7.94)"/><path class="cls-2" d="M181.25,80.66l1.29-1.9a7,7,0,0,0,3.82,1.38,5,5,0,0,0,2.55-.55,1.61,1.61,0,0,0,.93-1.38c0-1.08-.79-1.63-2.35-1.63a8.83,8.83,0,0,0-1.45.21,9.53,9.53,0,0,1-1.64.19c-1.9,0-2.85-.71-2.85-2.14a1.54,1.54,0,0,1,.67-1.2,4.19,4.19,0,0,1,1.66-.78,5,5,0,0,1-1.36-8.09,5,5,0,0,1,3.61-1.4,5.15,5.15,0,0,1,3.08.81l1.19-1.42L192,64.22l-1.43,1.07a5,5,0,0,1,.92,3.1,4.86,4.86,0,0,1-1.27,3.4,5,5,0,0,1-3.31,1.57l-2,.2a4.35,4.35,0,0,0-.93.27c-.4.15-.59.36-.59.61s.41.51,1.22.51a11.29,11.29,0,0,0,1.68-.2,12.25,12.25,0,0,1,1.68-.19,4.65,4.65,0,0,1,3.08.94,3.25,3.25,0,0,1,1.11,2.62,3.48,3.48,0,0,1-1.66,3,7.29,7.29,0,0,1-4.19,1.13,8.78,8.78,0,0,1-2.73-.46A8,8,0,0,1,181.25,80.66Zm5-15.38a2.58,2.58,0,0,0-2,.87,3.11,3.11,0,0,0-.78,2.13,3.52,3.52,0,0,0,.76,2.32,2.49,2.49,0,0,0,2,.91,2.36,2.36,0,0,0,2-.89,3.61,3.61,0,0,0,.71-2.34,3.14,3.14,0,0,0-.76-2.13A2.48,2.48,0,0,0,186.29,65.28Z" transform="translate(-37.78 -7.94)"/><rect class="cls-3" x="32.24" y="9.64" width="26.49" height="27.98"/><rect class="cls-4" x="64.47" width="26.49" height="37.62"/><rect class="cls-5" x="128.94" y="17.57" width="26.49" height="20.05"/><rect class="cls-6" x="96.71" y="24.54" width="26.49" height="13.08"/><line class="cls-7" x1="33.57" y1="84.06" x2="124.53" y2="84.06"/><text class="cls-8" transform="translate(19.57 102.57)">Copyright 2018, Maurice <tspan class="cls-9" x="101.36" y="0">K</tspan><tspan class="cls-10" x="106.3" y="0">och</tspan><tspan class="cls-11" x="0" y="10.89">R</tspan><tspan x="4.92" y="10.89">eleased under the MI</tspan><tspan class="cls-12" x="90.07" y="10.89">T</tspan><tspan x="95.18" y="10.89" xml:space="preserve"> License</tspan></text></svg>