<?xml version="1.0" encoding="UTF-8" standalone="no"?>
<svg
   xmlns:dc="http://purl.org/dc/elements/1.1/"
   xmlns:cc="http://creativecommons.org/ns#"
   xmlns:rdf="http://www.w3.org/1999/02/22-rdf-syntax-ns#"
   xmlns:svg="http://www.w3.org/2000/svg"
   xmlns="http://www.w3.org/2000/svg"
   xmlns:sodipodi="http://sodipodi.sourceforge.net/DTD/sodipodi-0.dtd"
   xmlns:inkscape="http://www.inkscape.org/namespaces/inkscape"
   width="121.44375mm"
   height="141.68437mm"
   viewBox="0 0 121.44375 141.68437"
   version="1.1"
   id="svg4633"
   inkscape:version="1.0.2-2 (e86c870879, 2021-01-15)"
   sodipodi:docname="timer.svg">
  <defs
     id="defs4627" />
  <sodipodi:namedview
     id="base"
     pagecolor="#ffffff"
     bordercolor="#666666"
     borderopacity="1.0"
     inkscape:pageopacity="0.0"
     inkscape:pageshadow="2"
     inkscape:zoom="0.35"
     inkscape:cx="235.21444"
     inkscape:cy="316.32142"
     inkscape:document-units="mm"
     inkscape:current-layer="layer1"
     inkscape:document-rotation="0"
     showgrid="false"
     fit-margin-top="0"
     fit-margin-left="0"
     fit-margin-right="0"
     fit-margin-bottom="0"
     inkscape:window-width="1254"
     inkscape:window-height="1041"
     inkscape:window-x="234"
     inkscape:window-y="0"
     inkscape:window-maximized="0" />
  <metadata
     id="metadata4630">
    <rdf:RDF>
      <cc:Work
         rdf:about="">
        <dc:format>image/svg+xml</dc:format>
        <dc:type
           rdf:resource="http://purl.org/dc/dcmitype/StillImage" />
        <dc:title></dc:title>
      </cc:Work>
    </rdf:RDF>
  </metadata>
  <g
     inkscape:label="Ebene 1"
     inkscape:groupmode="layer"
     id="layer1"
     transform="translate(-43.599512,-64.47329)">
    <g
       style="fill:#646464;fill-opacity:1"
       id="g4077"
       transform="matrix(0.26458333,0,0,0.26458333,33.4792,64.47329)">
      <g
         style="fill:#646464;fill-opacity:1"
         id="timer">
        <path
           style="fill:#646464;fill-opacity:1"
           inkscape:connector-curvature="0"
           d="m 344.25,0 h -153 v 51 h 153 z m -102,331.5 h 51 v -153 h -51 z m 204,-168.3 38.25,-35.7 C 471.75,114.75 459,102 446.25,91.8 l -35.7,35.7 c -38.25,-30.6 -89.25,-51 -142.8,-51 -127.5,0 -229.5,102 -229.5,229.5 0,127.5 102,229.5 229.5,229.5 127.5,0 229.5,-102 229.5,-229.5 0,-53.55 -17.85,-104.55 -51,-142.8 z m -178.5,321.3 c -99.45,0 -178.5,-79.05 -178.5,-178.5 0,-99.45 79.05,-178.5 178.5,-178.5 99.45,0 178.5,79.05 178.5,178.5 0,99.45 -79.05,178.5 -178.5,178.5 z"
           id="path4074" />
      </g>
    </g>
  </g>
</svg>
